<svg width="160" height="120" viewBox="0 0 160 120" fill="none" xmlns="http://www.w3.org/2000/svg" role="img" aria-label="browser window with sprout">
  <rect x="18" y="18" width="124" height="84" rx="12" stroke="currentColor" stroke-width="2"/>
  <path d="M18 39H142" stroke="currentColor" stroke-width="2"/>
  <circle cx="34" cy="29" r="3" fill="currentColor"/>
  <circle cx="46" cy="29" r="3" fill="currentColor" opacity=".55"/>
  <circle cx="58" cy="29" r="3" fill="currentColor" opacity=".25"/>
  <path d="M80 89C80 76 80 64 80 50" stroke="currentColor" stroke-width="2.5" stroke-linecap="round"/>
  <path d="M80 68C66 66 62 54 75 52C79 56 80 62 80 68Z" stroke="currentColor" stroke-width="2.5" stroke-linecap="round" stroke-linejoin="round"/>
  <path d="M80 64C95 61 99 48 86 47C82 52 80 58 80 64Z" stroke="currentColor" stroke-width="2.5" stroke-linecap="round" stroke-linejoin="round"/>
  <path d="M55 90C70 84 92 84 106 90" stroke="currentColor" stroke-width="2" stroke-linecap="round"/>
</svg>
