<svg width="120" height="120" viewBox="0 0 120 120" fill="none" xmlns="http://www.w3.org/2000/svg" role="img" aria-label="pattern found sprout">
  <path d="M24 31 C49 6 75 47 101 24" stroke="currentColor" stroke-width="1.5" stroke-dasharray="2 9" opacity="0.35"/>
  <circle cx="25" cy="31" r="3" fill="currentColor"/>
  <circle cx="52" cy="25" r="2.5" fill="#B99A6B"/>
  <circle cx="78" cy="34" r="3.5" fill="currentColor"/>
  <circle cx="101" cy="24" r="3" fill="currentColor"/>
  <ellipse cx="60" cy="94" rx="26" ry="6" fill="currentColor" opacity="0.12"/>
  <path d="M60 90 C60 76 60 62 60 45" stroke="currentColor" stroke-width="3" stroke-linecap="round"/>
  <path d="M60 69 C45 67 40 53 54 50 C59 55 60 62 60 69Z" stroke="currentColor" stroke-width="3" fill="none" stroke-linecap="round" stroke-linejoin="round"/>
  <path d="M60 64 C75 60 80 45 66 43 C62 49 60 56 60 64Z" stroke="currentColor" stroke-width="3" fill="none" stroke-linecap="round" stroke-linejoin="round"/>
  <path d="M39 94 C51 88 69 88 82 94" stroke="currentColor" stroke-width="2.5" stroke-linecap="round"/>
</svg>
